<?xml version="1.0" encoding="UTF-8" standalone="no"?>
<svg
   data-name="Layer 1"
   width="213.75232"
   height="178.55341"
   viewBox="0 0 213.75233 178.55341"
   version="1.1"
   id="svg144"
   sodipodi:docname="undraw_monitor_iqpq.svg"
   inkscape:version="1.1.2 (08b2f3d93c, 2022-04-05)"
   xmlns:inkscape="http://www.inkscape.org/namespaces/inkscape"
   xmlns:sodipodi="http://sodipodi.sourceforge.net/DTD/sodipodi-0.dtd"
   xmlns:xlink="http://www.w3.org/1999/xlink"
   xmlns="http://www.w3.org/2000/svg"
   xmlns:svg="http://www.w3.org/2000/svg"
   xmlns:rdf="http://www.w3.org/1999/02/22-rdf-syntax-ns#"
   xmlns:cc="http://creativecommons.org/ns#"
   xmlns:dc="http://purl.org/dc/elements/1.1/">
  <sodipodi:namedview
     id="namedview146"
     pagecolor="#505050"
     bordercolor="#eeeeee"
     borderopacity="1"
     inkscape:pageshadow="0"
     inkscape:pageopacity="0"
     inkscape:pagecheckerboard="0"
     showgrid="false"
     fit-margin-top="0"
     fit-margin-left="0"
     fit-margin-right="0"
     fit-margin-bottom="0"
     inkscape:zoom="1.1068988"
     inkscape:cx="-333.81553"
     inkscape:cy="26.651037"
     inkscape:window-width="3752"
     inkscape:window-height="2096"
     inkscape:window-x="88"
     inkscape:window-y="27"
     inkscape:window-maximized="1"
     inkscape:current-layer="svg144" />
  <defs
     id="defs10">
    <linearGradient
       id="f137b292-0aa2-40b3-a442-9a256144b6d8-37"
       x1="2938.8301"
       y1="215.39999"
       x2="2938.8301"
       y2="-91.93"
       gradientTransform="matrix(0.51,0.86,-0.86,0.51,-713.07,-2373.14)"
       gradientUnits="userSpaceOnUse">
      <stop
         offset="0"
         stop-color="gray"
         stop-opacity="0.25"
         id="stop2" />
      <stop
         offset="0.54"
         stop-color="gray"
         stop-opacity="0.12"
         id="stop4" />
      <stop
         offset="1"
         stop-color="gray"
         stop-opacity="0.1"
         id="stop6" />
    </linearGradient>
    <linearGradient
       id="ab747304-1bb2-44ed-8687-72ce94e318d2-38"
       x1="1364.21"
       y1="820.41998"
       x2="1364.21"
       y2="492.03"
       gradientTransform="matrix(-1,-0.04,-0.04,1,2349.24,29.65)"
       xlink:href="#f137b292-0aa2-40b3-a442-9a256144b6d8-37" />
  </defs>
  <title
     id="title12">monitor</title>
  <g
     opacity="0.5"
     id="g24"
     transform="translate(-880.96765,-367.69)">
    <rect
       x="960.71997"
       y="367.69"
       width="134"
       height="134"
       rx="14.12"
       fill="#d0d2d5"
       id="rect14" />
    <path
       d="m 1061.36,461.85 h 38 c 0,0 32,28 0,57 h -38 c 0,0 -32,-26 0,-57 z"
       transform="translate(-52.64,-55.65)"
       opacity="0.1"
       id="path16" />
    <rect
       x="1012.72"
       y="422.19"
       width="5"
       height="15"
       fill="#3f3d56"
       id="rect18" />
    <rect
       x="1037.72"
       y="420.19"
       width="5"
       height="18"
       fill="#3f3d56"
       id="rect20" />
    <path
       d="m 1027.72,446.19 v 0 a 6,6 0 0 1 6,6 v 5 h -12 v -5 a 6,6 0 0 1 6,-6 z"
       fill="#3f3d56"
       id="path22" />
  </g>
  <path
     d="m 64.861876,127.94714 66.906874,-23.75869 a 7,7 0 0 1 8.9388,4.25405 v 0 a 7,7 0 0 1 -4.254,8.93885 l -66.906864,23.75868 z"
     fill="#d0d2d5"
     id="path56" />
  <path
     d="m 53.906616,99.004638 66.906834,-23.75868 a 7,7 0 0 1 8.9389,4.25404 v 0 a 7,7 0 0 1 -4.2541,8.93885 L 58.591426,112.19754 Z"
     fill="#d0d2d5"
     id="path56-3" />
  <path
     d="M 15.119689,84.908278 64.443548,70.380053 c 30.727414,-9.050688 30.324564,13.801086 41.043582,43.986927 l 5.78909,16.30265 c 4.19151,11.80371 -1.97941,24.77039 -13.7831,28.96189 l -49.586448,17.60819 c -11.803704,4.19151 -24.770381,-1.97939 -28.961888,-13.7831 L 1.3365884,113.87017 C -2.8549185,102.06646 3.1042596,88.447394 15.119689,84.908278 Z"
     fill="#3f3d56"
     id="path58"
     sodipodi:nodetypes="sssssssss" />
  <metadata
     id="metadata148">
    <rdf:RDF>
      <cc:Work
         rdf:about="">
        <dc:title>monitor</dc:title>
      </cc:Work>
    </rdf:RDF>
  </metadata>
</svg>
